<svg xmlns="http://www.w3.org/2000/svg" xmlns:xlink="http://www.w3.org/1999/xlink" width="100" zoomAndPan="magnify" viewBox="0 0 75 74.999997" height="100" preserveAspectRatio="xMidYMid meet" version="1.0"><defs><g/><clipPath id="5b387d114b"><path d="M 20 40 L 69 40 L 69 71 L 20 71 Z M 20 40 " clip-rule="nonzero"/></clipPath><clipPath id="917aa02526"><path d="M 19.773438 53.132812 L 31.589844 28.203125 L 68.753906 45.820312 L 56.9375 70.75 Z M 19.773438 53.132812 " clip-rule="nonzero"/></clipPath><clipPath id="f475779240"><path d="M 19.773438 53.132812 L 31.589844 28.203125 L 68.753906 45.820312 L 56.9375 70.75 Z M 19.773438 53.132812 " clip-rule="nonzero"/></clipPath><clipPath id="113435b60f"><path d="M 19 39 L 69 39 L 69 71 L 19 71 Z M 19 39 " clip-rule="nonzero"/></clipPath><clipPath id="189e4fdd6b"><path d="M 19.773438 53.132812 L 31.589844 28.203125 L 68.753906 45.820312 L 56.9375 70.75 Z M 19.773438 53.132812 " clip-rule="nonzero"/></clipPath><clipPath id="e042735d57"><path d="M 19.773438 53.132812 L 31.589844 28.203125 L 68.753906 45.820312 L 56.9375 70.75 Z M 19.773438 53.132812 " clip-rule="nonzero"/></clipPath><clipPath id="bbef424541"><path d="M 7 4 L 52 4 L 52 32 L 7 32 Z M 7 4 " clip-rule="nonzero"/></clipPath><clipPath id="05978eb209"><path d="M 51.757812 20.226562 L 41.042969 42.824219 L 7.351562 26.851562 L 18.0625 4.253906 Z M 51.757812 20.226562 " clip-rule="nonzero"/></clipPath><clipPath id="b9d0698536"><path d="M 51.757812 20.226562 L 41.042969 42.824219 L 7.351562 26.851562 L 18.0625 4.253906 Z M 51.757812 20.226562 " clip-rule="nonzero"/></clipPath><clipPath id="6edf5f4f3b"><path d="M 7 4 L 52 4 L 52 33 L 7 33 Z M 7 4 " clip-rule="nonzero"/></clipPath><clipPath id="e52d95bbe4"><path d="M 51.757812 20.226562 L 41.042969 42.824219 L 7.351562 26.851562 L 18.0625 4.253906 Z M 51.757812 20.226562 " clip-rule="nonzero"/></clipPath><clipPath id="c12bb8bde9"><path d="M 51.757812 20.226562 L 41.042969 42.824219 L 7.351562 26.851562 L 18.0625 4.253906 Z M 51.757812 20.226562 " clip-rule="nonzero"/></clipPath></defs><rect x="-7.5" width="90" fill="#ffffff" y="-7.5" height="89.999996" fill-opacity="1"/><rect x="-7.5" width="90" fill="#000000" y="-7.5" height="89.999996" fill-opacity="1"/><g clip-path="url(#5b387d114b)"><g clip-path="url(#917aa02526)"><g clip-path="url(#f475779240)"><path fill="#000000" d="M 44.566406 64.324219 L 32.503906 58.609375 L 38.222656 46.542969 L 50.285156 52.261719 Z M 62.347656 57.980469 L 50.285156 52.261719 L 44.566406 64.324219 L 56.628906 70.042969 Z M 68.066406 45.917969 L 56.003906 40.199219 L 50.285156 52.261719 L 62.347656 57.980469 Z M 38.222656 46.542969 L 26.160156 40.824219 L 20.441406 52.890625 L 32.503906 58.609375 Z M 38.222656 46.542969 " fill-opacity="1" fill-rule="nonzero"/></g></g></g><g clip-path="url(#113435b60f)"><g clip-path="url(#189e4fdd6b)"><g clip-path="url(#e042735d57)"><path fill="#ff4d00" d="M 50.953125 52.023438 L 44.804688 64.992188 L 31.835938 58.84375 L 37.984375 45.878906 Z M 44.328125 63.660156 L 49.621094 52.5 L 38.460938 47.210938 L 33.171875 58.371094 Z M 63.015625 57.742188 L 56.867188 70.710938 L 43.902344 64.5625 L 50.046875 51.597656 Z M 56.394531 69.378906 L 61.683594 58.21875 L 50.523438 52.929688 L 45.234375 64.089844 Z M 68.734375 45.679688 L 62.585938 58.648438 L 49.621094 52.5 L 55.765625 39.535156 Z M 62.113281 57.3125 L 67.402344 46.15625 L 56.242188 40.867188 L 50.953125 52.023438 Z M 38.890625 46.304688 L 32.742188 59.273438 L 19.773438 53.125 L 25.921875 40.160156 Z M 32.265625 57.941406 L 37.554688 46.78125 L 26.398438 41.492188 L 21.109375 52.652344 Z M 32.265625 57.941406 " fill-opacity="1" fill-rule="nonzero"/></g></g></g><g fill="#2bff00" fill-opacity="1"><g transform="translate(23.94133, 51.171091)"><g><path d="M 5.851562 -5.382812 L 3.632812 -6.433594 L 0.472656 0.234375 L 2.691406 1.285156 C 4.628906 2.207031 6.867188 1.558594 7.785156 -0.382812 C 8.710938 -2.328125 7.789062 -4.460938 5.851562 -5.382812 Z M 3.761719 -0.976562 L 4.78125 -3.128906 C 5.375 -2.847656 5.625 -2.140625 5.339844 -1.539062 C 5.058594 -0.949219 4.355469 -0.695312 3.761719 -0.976562 Z M 3.761719 -0.976562 "/></g></g></g><g fill="#2bff00" fill-opacity="1"><g transform="translate(30.354718, 54.211353)"><g/></g></g><g fill="#2bff00" fill-opacity="1"><g transform="translate(33.650945, 55.773927)"><g/></g></g><g fill="#2bff00" fill-opacity="1"><g transform="translate(36.947266, 57.336546)"><g><path d="M 6.734375 -2.308594 L 7.761719 -4.476562 L 3.632812 -6.433594 L 0.476562 0.226562 L 4.605469 2.183594 L 5.628906 0.0234375 L 3.71875 -0.882812 L 3.839844 -1.140625 L 4.804688 -0.683594 L 5.671875 -2.507812 L 4.707031 -2.964844 L 4.824219 -3.214844 Z M 6.734375 -2.308594 "/></g></g></g><g fill="#2bff00" fill-opacity="1"><g transform="translate(42.042144, 59.751769)"><g/></g></g><g fill="#2bff00" fill-opacity="1"><g transform="translate(45.338372, 61.314343)"><g/></g></g><g fill="#2bff00" fill-opacity="1"><g transform="translate(48.634692, 62.876961)"><g><path d="M 4.777344 -0.496094 C 4.183594 -0.777344 3.921875 -1.488281 4.203125 -2.078125 C 4.488281 -2.679688 5.203125 -2.929688 5.796875 -2.648438 C 6.292969 -2.410156 6.542969 -1.882812 6.453125 -1.363281 L 8.925781 -0.191406 C 9.644531 -2.074219 8.796875 -4.21875 6.953125 -5.09375 C 5.003906 -6.015625 2.691406 -5.183594 1.765625 -3.234375 C 0.847656 -1.292969 1.667969 1.023438 3.617188 1.949219 C 5.460938 2.824219 7.65625 2.121094 8.660156 0.371094 L 6.183594 -0.800781 C 5.84375 -0.402344 5.273438 -0.261719 4.777344 -0.496094 Z M 4.777344 -0.496094 "/></g></g></g><g fill="#2bff00" fill-opacity="1"><g transform="translate(56.050259, 66.392306)"><g/></g></g><g clip-path="url(#bbef424541)"><g clip-path="url(#05978eb209)"><g clip-path="url(#b9d0698536)"><path fill="#000000" d="M 29.277344 10.078125 L 40.214844 15.261719 L 35.03125 26.199219 L 24.09375 21.011719 Z M 13.15625 15.828125 L 24.09375 21.011719 L 29.277344 10.078125 L 18.34375 4.894531 Z M 7.972656 26.765625 L 18.910156 31.949219 L 24.09375 21.011719 L 13.15625 15.828125 Z M 35.03125 26.199219 L 45.96875 31.382812 L 51.152344 20.445312 L 40.214844 15.261719 Z M 35.03125 26.199219 " fill-opacity="1" fill-rule="nonzero"/></g></g></g><g clip-path="url(#6edf5f4f3b)"><g clip-path="url(#e52d95bbe4)"><g clip-path="url(#c12bb8bde9)"><path fill="#ff4d00" d="M 23.488281 21.230469 L 29.0625 9.472656 L 40.820312 15.046875 L 35.246094 26.800781 Z M 29.492188 10.683594 L 24.699219 20.796875 L 34.816406 25.59375 L 39.609375 15.476562 Z M 12.554688 16.042969 L 18.125 4.289062 L 29.882812 9.863281 L 24.308594 21.617188 Z M 18.558594 5.496094 L 13.761719 15.613281 L 23.878906 20.410156 L 28.671875 10.292969 Z M 7.367188 26.980469 L 12.941406 15.226562 L 24.699219 20.796875 L 19.125 32.554688 Z M 13.375 16.433594 L 8.578125 26.550781 L 18.695312 31.34375 L 23.488281 21.230469 Z M 34.425781 26.414062 L 40 14.65625 L 51.753906 20.230469 L 46.183594 31.988281 Z M 40.429688 15.867188 L 35.636719 25.980469 L 45.75 30.777344 L 50.546875 20.660156 Z M 40.429688 15.867188 " fill-opacity="1" fill-rule="nonzero"/></g></g></g><g fill="#2bff00" fill-opacity="1"><g transform="translate(17.253602, 14.495694)"><g><path d="M 2.441406 1.15625 L 5.304688 -4.878906 L 3.296875 -5.832031 L 0.433594 0.207031 Z M 5.667969 -4.707031 C 5.667969 -4.707031 5.660156 -4.710938 5.660156 -4.710938 L 5.617188 -4.730469 L 3.722656 -0.738281 C 3.933594 -0.671875 4.132812 -0.617188 4.320312 -0.582031 C 5.34375 -0.394531 6.269531 -0.867188 6.707031 -1.796875 C 7.226562 -2.886719 6.761719 -4.191406 5.667969 -4.707031 Z M 5.667969 -4.707031 "/></g></g></g><g fill="#2bff00" fill-opacity="1"><g transform="translate(22.304067, 16.889863)"><g/></g></g><g fill="#2bff00" fill-opacity="1"><g transform="translate(25.292428, 18.306493)"><g/></g></g><g fill="#2bff00" fill-opacity="1"><g transform="translate(28.280874, 19.723163)"><g><path d="M 6.105469 -2.09375 L 7.039062 -4.058594 L 3.296875 -5.832031 L 0.433594 0.207031 L 4.175781 1.980469 L 5.101562 0.0234375 L 3.371094 -0.800781 L 3.480469 -1.035156 L 4.355469 -0.617188 L 5.140625 -2.273438 L 4.265625 -2.6875 L 4.371094 -2.914062 Z M 6.105469 -2.09375 "/></g></g></g><g fill="#2bff00" fill-opacity="1"><g transform="translate(32.899892, 21.912806)"><g/></g></g><g fill="#2bff00" fill-opacity="1"><g transform="translate(35.888254, 23.329436)"><g/></g></g><g fill="#2bff00" fill-opacity="1"><g transform="translate(38.876699, 24.746106)"><g><path d="M 7.695312 -3.746094 L 3.398438 -5.78125 L 2.46875 -3.816406 L 3.914062 -3.132812 L 0.261719 0.125 L 0.535156 0.253906 L 0.53125 0.261719 L 4.570312 2.175781 L 5.5 0.210938 L 4.027344 -0.488281 Z M 7.695312 -3.746094 "/></g></g></g></svg>